<svg width="29" height="28" viewBox="0 0 29 28" fill="none" xmlns="http://www.w3.org/2000/svg">
<g clip-path="url(#clip0_1_98)">
<path d="M12.1374 6.07361C6.34962 6.07361 1.6554 10.7618 1.6554 16.5556C1.6554 22.3493 6.34962 27.0375 12.1374 27.0375C17.9251 27.0375 22.6193 22.3433 22.6193 16.5556C22.6193 13.6617 21.4473 11.0397 19.5502 9.14268" stroke="white" stroke-width="3" stroke-linecap="round" stroke-linejoin="round"/>
<path d="M12.1374 10.5685C8.83268 10.5685 6.15027 13.2509 6.15027 16.5556C6.15027 19.8603 8.83268 22.5427 12.1374 22.5427C15.4421 22.5427 18.1245 19.8603 18.1245 16.5556C18.1245 14.9969 17.5264 13.5771 16.5537 12.5138" stroke="white" stroke-width="3" stroke-linecap="round" stroke-linejoin="round"/>
<path d="M12.1374 16.5556L21.0244 7.66858" stroke="white" stroke-width="3" stroke-linecap="round" stroke-linejoin="round"/>
<path d="M24.8365 8.45396L21.0244 7.66857L20.239 3.8564L23.0906 1.01086L23.8699 4.82304L27.6821 5.60239L24.8365 8.45396Z" stroke="white" stroke-width="3" stroke-linecap="round" stroke-linejoin="round"/>
</g>
<defs>
<clipPath id="clip0_1_98">
<rect width="27.8391" height="27.8391" fill="white" transform="translate(0.749176 0.104614)"/>
</clipPath>
</defs>
</svg>
